ffmpeg started on 2016-12-02 at 02:50:18
Report written to "Output/x264/results/ffmpeg/old_town_cross_2160p50slower3500k.log"
Command line:
Tools/ffmpeg/ffmpeg -benchmark -y -i Input/y4m/old_town_cross_2160p50.y4m -c:v libx264 -preset slower -b:v 3500k -an Output/x264/encoded/old_town_cross_2160p50slower3500k.mkv
ffmpeg version N-82227-gdb23fde Copyright (c) 2000-2016 the FFmpeg developers
  built with gcc 5.4.0 (Ubuntu 5.4.0-6ubuntu1~16.04.2) 20160609
  configuration: --prefix=/home/jaroslav/ffmpeg_build --pkg-config-flags=--static --extra-cflags=-I/home/jaroslav/ffmpeg_build/include --extra-ldflags=-L/home/jaroslav/ffmpeg_build/lib --bindir=/home/jaroslav/bin --enable-gpl --enable-libass --enable-libfdk-aac --enable-libfreetype --enable-libmp3lame --enable-libopus --enable-libtheora --enable-libvorbis --enable-libvpx --enable-libx264 --enable-libx265 --enable-nvenc --enable-libmfx --enable-libxvid --enable-libgsm --enable-libopencore-amrnb --enable-version3 --enable-nonfree
  libavutil      55. 35.100 / 55. 35.100
  libavcodec     57. 66.101 / 57. 66.101
  libavformat    57. 57.100 / 57. 57.100
  libavdevice    57.  2.100 / 57.  2.100
  libavfilter     6. 66.100 /  6. 66.100
  libswscale      4.  3.100 /  4.  3.100
  libswresample   2.  4.100 /  2.  4.100
  libpostproc    54.  2.100 / 54.  2.100
Input #0, yuv4mpegpipe, from 'Input/y4m/old_town_cross_2160p50.y4m':
  Duration: 00:00:10.00, start: 0.000000, bitrate: 4976642 kb/s
    Stream #0:0: Video: rawvideo (I420 / 0x30323449), yuv420p(progressive), 3840x2160, SAR 1:1 DAR 16:9, 50 fps, 50 tbr, 50 tbn, 50 tbc
[libx264 @ 0x271e120] using SAR=1/1
[libx264 @ 0x271e120] DPB size (8 frames, 259200 mbs) > level limit (5 frames, 184320 mbs)
[libx264 @ 0x271e120] using cpu capabilities: MMX2 SSE2Fast SSSE3 SSE4.2 AVX FMA3 AVX2 LZCNT BMI2
[libx264 @ 0x271e120] profile High, level 5.2
[libx264 @ 0x271e120] 264 - core 148 - H.264/MPEG-4 AVC codec - Copyleft 2003-2016 - http://www.videolan.org/x264.html - options: cabac=1 ref=8 deblock=1:0:0 analyse=0x3:0x133 me=umh subme=9 psy=1 psy_rd=1.00:0.00 mixed_ref=1 me_range=16 chroma_me=1 trellis=2 8x8dct=1 cqm=0 deadzone=21,11 fast_pskip=1 chroma_qp_offset=-2 threads=6 lookahead_threads=1 sliced_threads=0 nr=0 decimate=1 interlaced=0 bluray_compat=0 constrained_intra=0 bframes=3 b_pyramid=2 b_adapt=2 b_bias=0 direct=3 weightb=1 open_gop=0 weightp=2 keyint=250 keyint_min=25 scenecut=40 intra_refresh=0 rc_lookahead=60 rc=abr mbtree=1 bitrate=3500 ratetol=1.0 qcomp=0.60 qpmin=0 qpmax=69 qpstep=4 ip_ratio=1.40 aq=1:1.00
Output #0, matroska, to 'Output/x264/encoded/old_town_cross_2160p50slower3500k.mkv':
  Metadata:
    encoder         : Lavf57.57.100
    Stream #0:0: Video: h264 (libx264) (H264 / 0x34363248), yuv420p, 3840x2160 [SAR 1:1 DAR 16:9], q=-1--1, 3500 kb/s, 50 fps, 1k tbn, 50 tbc
    Metadata:
      encoder         : Lavc57.66.101 libx264
    Side data:
      cpb: bitrate max/min/avg: 0/0/3500000 buffer size: 0 vbv_delay: -1
Stream mapping:
  Stream #0:0 -> #0:0 (rawvideo (native) -> h264 (libx264))
Press [q] to stop, [?] for help
frame=   62 fps=0.0 q=0.0 size=       0kB time=00:00:00.00 bitrate=N/A speed=   0x    frame=   67 fps= 17 q=0.0 size=       0kB time=00:00:00.00 bitrate=N/A speed=   0x    frame=   74 fps= 16 q=51.0 size=       1kB time=00:00:00.02 bitrate= 280.4kbits/s speed=0.00466x    frame=   78 fps= 15 q=50.0 size=       1kB time=00:00:00.10 bitrate=  58.3kbits/s speed=0.0194x    frame=   83 fps= 15 q=48.0 size=       1kB time=00:00:00.20 bitrate=  29.3kbits/s speed=0.0351x    frame=   85 fps= 13 q=45.0 size=       1kB time=00:00:00.24 bitrate=  24.4kbits/s speed=0.0379x    frame=   89 fps= 13 q=45.0 size=       1kB time=00:00:00.32 bitrate=  18.3kbits/s speed=0.0466x    frame=   92 fps= 12 q=45.0 size=       1kB time=00:00:00.38 bitrate=  15.5kbits/s speed=0.0498x    frame=   96 fps= 12 q=44.0 size=       1kB time=00:00:00.46 bitrate=  12.8kbits/s speed=0.0564x    frame=  100 fps= 11 q=43.0 size=       1kB time=00:00:00.54 bitrate=  10.9kbits/s speed=0.0619x    frame=  103 fps= 11 q=43.0 size=       1kB time=00:00:00.60 bitrate=   9.8kbits/s speed=0.0641x    frame=  107 fps= 11 q=43.0 size=       1kB time=00:00:00.68 bitrate=   8.6kbits/s speed=0.0671x    frame=  111 fps= 10 q=43.0 size=       1kB time=00:00:00.76 bitrate=   7.7kbits/s speed=0.0713x    frame=  113 fps= 10 q=43.0 size=       1kB time=00:00:00.80 bitrate=   7.4kbits/s speed=0.071x    frame=  118 fps=9.9 q=42.0 size=       1kB time=00:00:00.90 bitrate=   6.5kbits/s speed=0.0753x    frame=  122 fps=9.5 q=42.0 size=       1kB time=00:00:00.98 bitrate=   6.0kbits/s speed=0.0763x    frame=  126 fps=9.4 q=42.0 size=       1kB time=00:00:01.06 bitrate=   5.5kbits/s speed=0.0791x    frame=  130 fps=9.2 q=42.0 size=       1kB time=00:00:01.14 bitrate=   5.2kbits/s speed=0.0808x    frame=  134 fps=9.0 q=42.0 size=       1kB time=00:00:01.22 bitrate=   4.8kbits/s speed=0.0816x    frame=  138 fps=8.7 q=42.0 size=       1kB time=00:00:01.30 bitrate=   4.5kbits/s speed=0.0821x    frame=  142 fps=8.6 q=42.0 size=       1kB time=00:00:01.38 bitrate=   4.3kbits/s speed=0.0839x    frame=  146 fps=8.5 q=41.0 size=       1kB time=00:00:01.46 bitrate=   4.0kbits/s speed=0.085x    frame=  150 fps=8.3 q=41.0 size=       1kB time=00:00:01.54 bitrate=   3.8kbits/s speed=0.085x    frame=  154 fps=8.3 q=41.0 size=       1kB time=00:00:01.62 bitrate=   3.6kbits/s speed=0.087x    frame=  156 fps=8.2 q=41.0 size=       1kB time=00:00:01.66 bitrate=   3.5kbits/s speed=0.0868x    frame=  162 fps=8.0 q=41.0 size=       1kB time=00:00:01.78 bitrate=   3.3kbits/s speed=0.0878x    frame=  165 fps=7.9 q=41.0 size=       1kB time=00:00:01.84 bitrate=   3.2kbits/s speed=0.0882x    frame=  170 fps=7.9 q=41.0 size=       1kB time=00:00:01.94 bitrate=   3.0kbits/s speed=0.0898x    frame=  173 fps=7.8 q=41.0 size=       1kB time=00:00:02.00 bitrate=   2.9kbits/s speed=0.0899x    frame=  177 fps=7.7 q=41.0 size=       1kB time=00:00:02.08 bitrate=   2.8kbits/s speed=0.0906x    frame=  180 fps=7.6 q=41.0 size=       1kB time=00:00:02.14 bitrate=   2.8kbits/s speed=0.0904x    frame=  185 fps=7.6 q=41.0 size=       1kB time=00:00:02.24 bitrate=   2.6kbits/s speed=0.0921x    frame=  188 fps=7.5 q=41.0 size=       1kB time=00:00:02.30 bitrate=   2.6kbits/s speed=0.0915x    frame=  193 fps=7.4 q=41.0 size=       1kB time=00:00:02.40 bitrate=   2.5kbits/s speed=0.0924x    frame=  196 fps=7.4 q=41.0 size=       1kB time=00:00:02.46 bitrate=   2.4kbits/s speed=0.0928x    frame=  199 fps=7.3 q=41.0 size=       1kB time=00:00:02.52 bitrate=   2.3kbits/s speed=0.0928x    frame=  203 fps=7.2 q=41.0 size=       1kB time=00:00:02.60 bitrate=   2.3kbits/s speed=0.0928x    frame=  207 fps=7.2 q=41.0 size=       1kB time=00:00:02.68 bitrate=   2.2kbits/s speed=0.0938x    frame=  211 fps=7.2 q=41.0 size=       1kB time=00:00:02.76 bitrate=   2.1kbits/s speed=0.094x    frame=  215 fps=7.2 q=41.0 size=       1kB time=00:00:02.84 bitrate=   2.1kbits/s speed=0.0945x    frame=  219 fps=7.2 q=41.0 size=       1kB time=00:00:02.92 bitrate=   2.0kbits/s speed=0.0954x    frame=  223 fps=7.0 q=41.0 size=       1kB time=00:00:03.00 bitrate=   2.0kbits/s speed=0.0947x    frame=  227 fps=7.0 q=41.0 size=       1kB time=00:00:03.08 bitrate=   1.9kbits/s speed=0.0953x    frame=  231 fps=7.0 q=40.0 size=       1kB time=00:00:03.16 bitrate=   1.9kbits/s speed=0.0954x    frame=  235 fps=6.9 q=40.0 size=       1kB time=00:00:03.24 bitrate=   1.8kbits/s speed=0.0953x    frame=  240 fps=6.9 q=40.0 size=       1kB time=00:00:03.34 bitrate=   1.8kbits/s speed=0.0966x    frame=  243 fps=6.9 q=40.0 size=       1kB time=00:00:03.40 bitrate=   1.7kbits/s speed=0.0962x    frame=  247 fps=6.9 q=40.0 size=       1kB time=00:00:03.48 bitrate=   1.7kbits/s speed=0.0966x    frame=  250 fps=6.8 q=40.0 size=       1kB time=00:00:03.54 bitrate=   1.7kbits/s speed=0.0965x    frame=  254 fps=6.8 q=40.0 size=       1kB time=00:00:03.62 bitrate=   1.6kbits/s speed=0.0967x    frame=  258 fps=6.8 q=40.0 size=       1kB time=00:00:03.70 bitrate=   1.6kbits/s speed=0.0974x    frame=  262 fps=6.7 q=40.0 size=       1kB time=00:00:03.78 bitrate=   1.6kbits/s speed=0.097x    frame=  267 fps=6.7 q=40.0 size=       1kB time=00:00:03.88 bitrate=   1.5kbits/s speed=0.0979x    frame=  270 fps=6.7 q=40.0 size=       1kB time=00:00:03.94 bitrate=   1.5kbits/s speed=0.0976x    frame=  274 fps=6.7 q=40.0 size=       1kB time=00:00:04.02 bitrate=   1.5kbits/s speed=0.0983x    frame=  276 fps=6.7 q=40.0 size=       1kB time=00:00:04.06 bitrate=   1.4kbits/s speed=0.098x    frame=  279 fps=6.6 q=40.0 size=       1kB time=00:00:04.12 bitrate=   1.4kbits/s speed=0.0981x    frame=  282 fps=6.6 q=40.0 size=       1kB time=00:00:04.18 bitrate=   1.4kbits/s speed=0.098x    frame=  285 fps=6.6 q=40.0 size=       1kB time=00:00:04.24 bitrate=   1.4kbits/s speed=0.0983x    frame=  288 fps=6.6 q=40.0 size=       1kB time=00:00:04.30 bitrate=   1.4kbits/s speed=0.0984x    frame=  291 fps=6.6 q=40.0 size=       1kB time=00:00:04.36 bitrate=   1.4kbits/s speed=0.0985x    frame=  294 fps=6.6 q=40.0 size=       1kB time=00:00:04.42 bitrate=   1.3kbits/s speed=0.0986x    frame=  297 fps=6.5 q=40.0 size=       1kB time=00:00:04.48 bitrate=   1.3kbits/s speed=0.0986x    frame=  300 fps=6.5 q=40.0 size=       1kB time=00:00:04.54 bitrate=   1.3kbits/s speed=0.0988x    frame=  303 fps=6.5 q=40.0 size=       1kB time=00:00:04.60 bitrate=   1.3kbits/s speed=0.099x    frame=  306 fps=6.5 q=40.0 size=       1kB time=00:00:04.66 bitrate=   1.3kbits/s speed=0.099x    frame=  310 fps=6.5 q=40.0 size=       1kB time=00:00:04.74 bitrate=   1.2kbits/s speed=0.0993x    frame=  312 fps=6.5 q=40.0 size=       1kB time=00:00:04.78 bitrate=   1.2kbits/s speed=0.099x    frame=  317 fps=6.5 q=41.0 size=       1kB time=00:00:04.88 bitrate=   1.2kbits/s speed= 0.1x    frame=  318 fps=6.4 q=41.0 size=       1kB time=00:00:04.90 bitrate=   1.2kbits/s speed=0.0993x    frame=  325 fps=6.5 q=41.0 size=    1926kB time=00:00:05.04 bitrate=3129.5kbits/s speed=0.101x    frame=  328 fps=6.5 q=41.0 size=    1926kB time=00:00:05.10 bitrate=3092.7kbits/s speed=0.101x    frame=  331 fps=6.5 q=41.0 size=    1926kB time=00:00:05.16 bitrate=3056.7kbits/s speed=0.101x    frame=  336 fps=6.5 q=41.0 size=    1926kB time=00:00:05.26 bitrate=2998.6kbits/s speed=0.102x    frame=  339 fps=6.4 q=41.0 size=    1926kB time=00:00:05.32 bitrate=2964.8kbits/s speed=0.101x    frame=  344 fps=6.5 q=41.0 size=    1926kB time=00:00:05.42 bitrate=2910.1kbits/s speed=0.102x    frame=  347 fps=6.4 q=41.0 size=    1926kB time=00:00:05.48 bitrate=2878.3kbits/s speed=0.101x    frame=  351 fps=6.4 q=41.0 size=    1926kB time=00:00:05.56 bitrate=2836.9kbits/s speed=0.101x    frame=  355 fps=6.4 q=41.0 size=    1926kB time=00:00:05.64 bitrate=2796.6kbits/s speed=0.102x    frame=  358 fps=6.4 q=41.0 size=    1926kB time=00:00:05.70 bitrate=2767.2kbits/s speed=0.102x    frame=  361 fps=6.4 q=41.0 size=    1926kB time=00:00:05.76 bitrate=2738.4kbits/s speed=0.102x    frame=  364 fps=6.4 q=41.0 size=    1926kB time=00:00:05.82 bitrate=2710.2kbits/s speed=0.102x    frame=  368 fps=6.4 q=40.0 size=    1926kB time=00:00:05.90 bitrate=2673.4kbits/s speed=0.102x    frame=  372 fps=6.3 q=40.0 size=    1926kB time=00:00:05.98 bitrate=2637.6kbits/s speed=0.102x    frame=  375 fps=6.3 q=40.0 size=    1926kB time=00:00:06.04 bitrate=2611.5kbits/s speed=0.102x    frame=  379 fps=6.3 q=40.0 size=    1926kB time=00:00:06.12 bitrate=2577.3kbits/s speed=0.102x    frame=  383 fps=6.3 q=40.0 size=    1926kB time=00:00:06.20 bitrate=2544.1kbits/s speed=0.102x    frame=  387 fps=6.3 q=40.0 size=    1926kB time=00:00:06.28 bitrate=2511.7kbits/s speed=0.102x    frame=  391 fps=6.3 q=40.0 size=    1926kB time=00:00:06.36 bitrate=2480.1kbits/s speed=0.102x    frame=  395 fps=6.3 q=40.0 size=    1926kB time=00:00:06.44 bitrate=2449.3kbits/s speed=0.102x    frame=  399 fps=6.2 q=40.0 size=    1926kB time=00:00:06.52 bitrate=2419.2kbits/s speed=0.102x    frame=  403 fps=6.2 q=40.0 size=    1926kB time=00:00:06.60 bitrate=2389.9kbits/s speed=0.102x    frame=  407 fps=6.2 q=40.0 size=    1926kB time=00:00:06.68 bitrate=2361.3kbits/s speed=0.102x    frame=  411 fps=6.2 q=40.0 size=    1926kB time=00:00:06.76 bitrate=2333.4kbits/s speed=0.102x    frame=  414 fps=6.2 q=40.0 size=    1926kB time=00:00:06.82 bitrate=2312.8kbits/s speed=0.102x    frame=  418 fps=6.2 q=40.0 size=    1926kB time=00:00:06.90 bitrate=2286.0kbits/s speed=0.102x    frame=  423 fps=6.2 q=40.0 size=    1926kB time=00:00:07.00 bitrate=2253.4kbits/s speed=0.103x    frame=  426 fps=6.2 q=40.0 size=    1926kB time=00:00:07.06 bitrate=2234.2kbits/s speed=0.102x    frame=  430 fps=6.2 q=40.0 size=    1926kB time=00:00:07.14 bitrate=2209.2kbits/s speed=0.103x    frame=  434 fps=6.1 q=40.0 size=    1926kB time=00:00:07.22 bitrate=2184.7kbits/s speed=0.102x    frame=  439 fps=6.1 q=40.0 size=    1926kB time=00:00:07.32 bitrate=2154.9kbits/s speed=0.102x    frame=  442 fps=6.1 q=40.0 size=    1926kB time=00:00:07.38 bitrate=2137.4kbits/s speed=0.102x    frame=  446 fps=6.1 q=40.0 size=    1926kB time=00:00:07.46 bitrate=2114.4kbits/s speed=0.102x    frame=  448 fps=6.1 q=40.0 size=    1926kB time=00:00:07.50 bitrate=2103.2kbits/s speed=0.102x    frame=  450 fps=6.1 q=40.0 size=    1926kB time=00:00:07.54 bitrate=2092.0kbits/s speed=0.102x    frame=  455 fps=6.1 q=40.0 size=    1926kB time=00:00:07.64 bitrate=2064.6kbits/s speed=0.103x    frame=  457 fps=6.1 q=40.0 size=    1926kB time=00:00:07.68 bitrate=2053.9kbits/s speed=0.102x    frame=  463 fps=6.1 q=40.0 size=    1926kB time=00:00:07.80 bitrate=2022.3kbits/s speed=0.102x    frame=  468 fps=6.1 q=40.0 size=    1926kB time=00:00:07.90 bitrate=1996.7kbits/s speed=0.103x    frame=  470 fps=6.1 q=40.0 size=    1926kB time=00:00:07.94 bitrate=1986.6kbits/s speed=0.102x    frame=  472 fps=6.0 q=40.0 size=    1926kB time=00:00:07.98 bitrate=1976.7kbits/s speed=0.102x    frame=  477 fps=6.1 q=40.0 size=    1926kB time=00:00:08.08 bitrate=1952.2kbits/s speed=0.103x    frame=  479 fps=6.0 q=40.0 size=    1926kB time=00:00:08.12 bitrate=1942.6kbits/s speed=0.102x    frame=  483 fps=6.0 q=40.0 size=    1926kB time=00:00:08.20 bitrate=1923.6kbits/s speed=0.102x    frame=  487 fps=6.0 q=40.0 size=    1926kB time=00:00:08.28 bitrate=1905.1kbits/s speed=0.102x    frame=  491 fps=6.0 q=40.0 size=    1926kB time=00:00:08.36 bitrate=1886.8kbits/s speed=0.102x    frame=  495 fps=6.0 q=40.0 size=    1926kB time=00:00:08.44 bitrate=1868.9kbits/s speed=0.102x    frame=  498 fps=6.0 q=40.0 size=    1926kB time=00:00:08.50 bitrate=1855.8kbits/s speed=0.102x    frame=  500 fps=5.2 q=-1.0 Lsize=    4259kB time=00:00:09.94 bitrate=3510.0kbits/s speed=0.104x    
video:4255kB audio:0kB subtitle:0kB other streams:0kB global headers:0kB muxing overhead: 0.100200%
bench: utime=364.068s
bench: maxrss=2605328kB
[libx264 @ 0x271e120] frame I:3     Avg QP:37.27  size:118169
[libx264 @ 0x271e120] frame P:138   Avg QP:39.03  size: 12756
[libx264 @ 0x271e120] frame B:359   Avg QP:41.16  size:  6244
[libx264 @ 0x271e120] consecutive B-frames:  1.0%  2.0% 23.4% 73.6%
[libx264 @ 0x271e120] mb I  I16..4: 45.8% 50.1%  4.1%
[libx264 @ 0x271e120] mb P  I16..4:  0.1%  0.1%  0.0%  P16..4: 16.3%  0.3%  3.1%  0.0%  0.0%    skip:80.1%
[libx264 @ 0x271e120] mb B  I16..4:  0.0%  0.0%  0.0%  B16..8: 29.3%  0.0%  0.0%  direct: 0.0%  skip:70.6%  L0:44.3% L1:55.7% BI: 0.0%
[libx264 @ 0x271e120] final ratefactor: 32.91
[libx264 @ 0x271e120] 8x8 transform intra:49.6% inter:88.0%
[libx264 @ 0x271e120] direct mvs  spatial:98.9% temporal:1.1%
[libx264 @ 0x271e120] coded y,uvDC,uvAC intra: 32.3% 29.8% 6.8% inter: 0.5% 0.6% 0.0%
[libx264 @ 0x271e120] i16 v,h,dc,p:  7% 17%  1% 75%
[libx264 @ 0x271e120] i8 v,h,dc,ddl,ddr,vr,hd,vl,hu:  5%  4% 12% 12% 19% 10% 18%  7% 13%
[libx264 @ 0x271e120] i4 v,h,dc,ddl,ddr,vr,hd,vl,hu:  3%  4%  3% 14% 20% 12% 20%  8% 16%
[libx264 @ 0x271e120] i8c dc,h,v,p: 15% 67% 10%  8%
[libx264 @ 0x271e120] Weighted P-Frames: Y:0.7% UV:0.0%
[libx264 @ 0x271e120] ref P L0: 71.6% 17.3%  7.1%  1.1%  0.9%  0.8%  0.8%  0.3%  0.0%
[libx264 @ 0x271e120] ref B L0: 91.7%  6.0%  1.6%  0.3%  0.2%  0.2%  0.1%
[libx264 @ 0x271e120] ref B L1: 98.5%  1.5%
[libx264 @ 0x271e120] kb/s:3485.27
